# xmcd CD database file
#
# Track frame offsets:
#	150
#	18669
#	37334
#	54289
#	73720
#	90566
#	113157
#	132551
#	151997
#	168593
#	181797
#	198281
#	208516
#	223106
#	234484
#	249326
#	267099
#	282268
#	296266
#	309354
#
# Disc length: 4334 seconds
#
# Revision: 5
# Processed by: cddbd v1.5.2PL0 Copyright (c) Steve Scherf et al.
# Submitted via: CDex 1.70beta3
#
DISCID=2110ec14
DTITLE=Various Artist - テレビ朝日 アニメソング -Silver-
DYEAR=2011
DGENRE=Anime
TTITLE0=mao - 夢をかなえてドラえもん
TTITLE1=LINDBERG - 大キライ!
TTITLE2=ウルフルズ - バカサバイバー
TTITLE3=TWO-MIX - JUST COMMUNICATION
TTITLE4=PAMELAH - SPIRIT
TTITLE5=ROMANTIC MODE - DREAMS
TTITLE6=ソナーポケット - ネバギバ!
TTITLE7=FIELD OF VIEW - 渇いた叫び
TTITLE8=MAKE-UP - ペガサス幻想 -PEGASUS FANTASY-
TTITLE9=DALI - ムーンライト伝説
TTITLE10=ポプラ - 異次元ストーリー
TTITLE11=内田順子 - わぴこ天気予報!
TTITLE12=野沢雅子 山田栄子 - ビリビリ ビリ犬
TTITLE13=水木一郎　/ 夢を勝ちとろう
TTITLE14=TOME - んばば・ラブソング
TTITLE15=工藤真由 - プリキュア5、スマイル go go!
TTITLE16=橋本潮 - テレポーテーション ～恋の未確認～
TTITLE17=天地総子 - 大人になんかならないよ
TTITLE18=三輪勝恵 - きてよパーマン
TTITLE19=のはらしんのすけ - オラはにんきもの
EXTD=YEAR: 2011
EXTT0=
EXTT1=
EXTT2=
EXTT3=
EXTT4=
EXTT5=
EXTT6=
EXTT7=
EXTT8=
EXTT9=
EXTT10=
EXTT11=
EXTT12=
EXTT13=
EXTT14=
EXTT15=
EXTT16=
EXTT17=
EXTT18=
EXTT19=
PLAYORDER=
